<svg width="86" height="115" fill="none" xmlns="http://www.w3.org/2000/svg"><g opacity=".3"><mask id="a" maskUnits="userSpaceOnUse" x="0" y="0" width="11" height="11"><path d="M5.228 10.425c2.888 0 5.229-2.334 5.229-5.213C10.457 2.334 8.116 0 5.228 0 2.341 0 0 2.334 0 5.212c0 2.88 2.34 5.213 5.228 5.213z" fill="url(#paint0_linear)"/></mask><g mask="url(#a)"><path d="M5.228 10.425c2.888 0 5.229-2.334 5.229-5.213C10.457 2.334 8.116 0 5.228 0 2.341 0 0 2.334 0 5.212c0 2.88 2.34 5.213 5.228 5.213z" fill="url(#paint1_linear)"/></g><mask id="b" maskUnits="userSpaceOnUse" x="30" y="0" width="11" height="11"><path d="M35.51 10.425c2.887 0 5.228-2.334 5.228-5.213C40.738 2.334 38.397 0 35.51 0c-2.888 0-5.229 2.334-5.229 5.212 0 2.88 2.34 5.213 5.229 5.213z" fill="url(#paint2_linear)"/></mask><g mask="url(#b)"><path d="M35.51 10.425c2.887 0 5.228-2.334 5.228-5.213C40.738 2.334 38.397 0 35.51 0c-2.888 0-5.229 2.334-5.229 5.212 0 2.88 2.34 5.213 5.229 5.213z" fill="url(#paint3_linear)"/></g><mask id="c" maskUnits="userSpaceOnUse" x="60" y="0" width="12" height="11"><path d="M65.79 10.425c2.888 0 5.229-2.334 5.229-5.213C71.019 2.334 68.679 0 65.79 0c-2.887 0-5.228 2.334-5.228 5.212 0 2.88 2.341 5.213 5.228 5.213z" fill="url(#paint4_linear)"/></mask><g mask="url(#c)"><path d="M65.79 10.425c2.888 0 5.229-2.334 5.229-5.213C71.019 2.334 68.679 0 65.79 0c-2.887 0-5.228 2.334-5.228 5.212 0 2.88 2.341 5.213 5.228 5.213z" fill="url(#paint5_linear)"/></g><mask id="d" maskUnits="userSpaceOnUse" x="0" y="26" width="11" height="11"><path d="M5.228 36.596c2.888 0 5.229-2.334 5.229-5.213 0-2.878-2.341-5.212-5.229-5.212C2.341 26.17 0 28.505 0 31.383c0 2.88 2.34 5.213 5.228 5.213z" fill="url(#paint6_linear)"/></mask><g mask="url(#d)"><path d="M5.228 36.596c2.888 0 5.229-2.334 5.229-5.213 0-2.878-2.341-5.212-5.229-5.212C2.341 26.17 0 28.505 0 31.383c0 2.88 2.34 5.213 5.228 5.213z" fill="url(#paint7_linear)"/></g><mask id="e" maskUnits="userSpaceOnUse" x="30" y="26" width="11" height="11"><path d="M35.51 36.596c2.887 0 5.228-2.334 5.228-5.213 0-2.878-2.341-5.212-5.228-5.212-2.888 0-5.229 2.334-5.229 5.212 0 2.88 2.34 5.213 5.229 5.213z" fill="url(#paint8_linear)"/></mask><g mask="url(#e)"><path d="M35.51 36.596c2.887 0 5.228-2.334 5.228-5.213 0-2.878-2.341-5.212-5.228-5.212-2.888 0-5.229 2.334-5.229 5.212 0 2.88 2.34 5.213 5.229 5.213z" fill="url(#paint9_linear)"/></g><mask id="f" maskUnits="userSpaceOnUse" x="60" y="26" width="12" height="11"><path d="M65.79 36.596c2.888 0 5.229-2.334 5.229-5.213 0-2.878-2.34-5.212-5.229-5.212-2.887 0-5.228 2.334-5.228 5.212 0 2.88 2.341 5.213 5.228 5.213z" fill="url(#paint10_linear)"/></mask><g mask="url(#f)"><path d="M65.79 36.596c2.888 0 5.229-2.334 5.229-5.213 0-2.878-2.34-5.212-5.229-5.212-2.887 0-5.228 2.334-5.228 5.212 0 2.88 2.341 5.213 5.228 5.213z" fill="url(#paint11_linear)"/></g><mask id="g" maskUnits="userSpaceOnUse" x="0" y="52" width="11" height="11"><path d="M5.228 62.713c2.888 0 5.229-2.334 5.229-5.213s-2.341-5.212-5.229-5.212C2.341 52.288 0 54.62 0 57.5c0 2.879 2.34 5.213 5.228 5.213z" fill="url(#paint12_linear)"/></mask><g mask="url(#g)"><path d="M5.228 62.713c2.888 0 5.229-2.334 5.229-5.213s-2.341-5.212-5.229-5.212C2.341 52.288 0 54.62 0 57.5c0 2.879 2.34 5.213 5.228 5.213z" fill="url(#paint13_linear)"/></g><mask id="h" maskUnits="userSpaceOnUse" x="30" y="52" width="11" height="11"><path d="M35.51 62.713c2.887 0 5.228-2.334 5.228-5.213s-2.341-5.212-5.228-5.212c-2.888 0-5.229 2.333-5.229 5.212 0 2.879 2.34 5.213 5.229 5.213z" fill="url(#paint14_linear)"/></mask><g mask="url(#h)"><path d="M35.51 62.713c2.887 0 5.228-2.334 5.228-5.213s-2.341-5.212-5.228-5.212c-2.888 0-5.229 2.333-5.229 5.212 0 2.879 2.34 5.213 5.229 5.213z" fill="url(#paint15_linear)"/></g><mask id="i" maskUnits="userSpaceOnUse" x="60" y="52" width="12" height="11"><path d="M65.79 62.713c2.888 0 5.229-2.334 5.229-5.213s-2.34-5.212-5.229-5.212c-2.887 0-5.228 2.333-5.228 5.212 0 2.879 2.341 5.213 5.228 5.213z" fill="url(#paint16_linear)"/></mask><g mask="url(#i)"><path d="M65.79 62.713c2.888 0 5.229-2.334 5.229-5.213s-2.34-5.212-5.229-5.212c-2.887 0-5.228 2.333-5.228 5.212 0 2.879 2.341 5.213 5.228 5.213z" fill="url(#paint17_linear)"/></g><mask id="j" maskUnits="userSpaceOnUse" x="0" y="78" width="11" height="11"><path d="M5.228 88.883c2.888 0 5.229-2.333 5.229-5.212 0-2.879-2.341-5.213-5.229-5.213C2.341 78.459 0 80.793 0 83.671s2.34 5.212 5.228 5.212z" fill="url(#paint18_linear)"/></mask><g mask="url(#j)"><path d="M5.228 88.883c2.888 0 5.229-2.333 5.229-5.212 0-2.879-2.341-5.213-5.229-5.213C2.341 78.459 0 80.793 0 83.671s2.34 5.212 5.228 5.212z" fill="url(#paint19_linear)"/></g><mask id="k" maskUnits="userSpaceOnUse" x="30" y="78" width="11" height="11"><path d="M35.51 88.883c2.887 0 5.228-2.333 5.228-5.212 0-2.879-2.341-5.213-5.228-5.213-2.888 0-5.229 2.334-5.229 5.213s2.34 5.212 5.229 5.212z" fill="url(#paint20_linear)"/></mask><g mask="url(#k)"><path d="M35.51 88.883c2.887 0 5.228-2.333 5.228-5.212 0-2.879-2.341-5.213-5.228-5.213-2.888 0-5.229 2.334-5.229 5.213s2.34 5.212 5.229 5.212z" fill="url(#paint21_linear)"/></g><mask id="l" maskUnits="userSpaceOnUse" x="60" y="78" width="12" height="11"><path d="M65.79 88.883c2.888 0 5.229-2.333 5.229-5.212 0-2.879-2.34-5.213-5.229-5.213-2.887 0-5.228 2.334-5.228 5.213s2.341 5.212 5.228 5.212z" fill="url(#paint22_linear)"/></mask><g mask="url(#l)"><path d="M65.79 88.883c2.888 0 5.229-2.333 5.229-5.212 0-2.879-2.34-5.213-5.229-5.213-2.887 0-5.228 2.334-5.228 5.213s2.341 5.212 5.228 5.212z" fill="url(#paint23_linear)"/></g><mask id="m" maskUnits="userSpaceOnUse" x="0" y="104" width="11" height="11"><path d="M5.228 115c2.888 0 5.229-2.334 5.229-5.213 0-2.878-2.341-5.212-5.229-5.212-2.887 0-5.228 2.334-5.228 5.212C0 112.666 2.34 115 5.228 115z" fill="url(#paint24_linear)"/></mask><g mask="url(#m)"><path d="M5.228 115c2.888 0 5.229-2.334 5.229-5.213 0-2.878-2.341-5.212-5.229-5.212-2.887 0-5.228 2.334-5.228 5.212C0 112.666 2.34 115 5.228 115z" fill="url(#paint25_linear)"/></g><mask id="n" maskUnits="userSpaceOnUse" x="30" y="104" width="11" height="11"><path d="M35.51 115c2.887 0 5.228-2.334 5.228-5.213 0-2.878-2.341-5.212-5.228-5.212-2.888 0-5.229 2.334-5.229 5.212 0 2.879 2.34 5.213 5.229 5.213z" fill="url(#paint26_linear)"/></mask><g mask="url(#n)"><path d="M35.51 115c2.887 0 5.228-2.334 5.228-5.213 0-2.878-2.341-5.212-5.228-5.212-2.888 0-5.229 2.334-5.229 5.212 0 2.879 2.34 5.213 5.229 5.213z" fill="url(#paint27_linear)"/></g><mask id="o" maskUnits="userSpaceOnUse" x="60" y="104" width="12" height="11"><path d="M65.79 115c2.888 0 5.229-2.334 5.229-5.213 0-2.878-2.34-5.212-5.229-5.212-2.887 0-5.228 2.334-5.228 5.212 0 2.879 2.341 5.213 5.228 5.213z" fill="url(#paint28_linear)"/></mask><g mask="url(#o)"><path d="M65.79 115c2.888 0 5.229-2.334 5.229-5.213 0-2.878-2.34-5.212-5.229-5.212-2.887 0-5.228 2.334-5.228 5.212 0 2.879 2.341 5.213 5.228 5.213z" fill="url(#paint29_linear)"/></g></g><defs><linearGradient id="paint0_linear" x1="54.996" y1="131.134" x2="-16.406" y2="-50.67" gradientUnits="userSpaceOnUse"><stop/><stop offset="1" stop-color="#fff"/></linearGradient><linearGradient id="paint1_linear" x1="54.996" y1="131.134" x2="-16.406" y2="-50.67" gradientUnits="userSpaceOnUse"><stop stop-color="#97C3F9"/><stop offset="1" stop-color="#93C1F9"/></linearGradient><linearGradient id="paint2_linear" x1="81.201" y1="120.843" x2="9.799" y2="-60.961" gradientUnits="userSpaceOnUse"><stop/><stop offset="1" stop-color="#fff"/></linearGradient><linearGradient id="paint3_linear" x1="81.201" y1="120.843" x2="9.799" y2="-60.961" gradientUnits="userSpaceOnUse"><stop stop-color="#97C3F9"/><stop offset="1" stop-color="#93C1F9"/></linearGradient><linearGradient id="paint4_linear" x1="107.405" y1="110.551" x2="36.003" y2="-71.253" gradientUnits="userSpaceOnUse"><stop/><stop offset="1" stop-color="#fff"/></linearGradient><linearGradient id="paint5_linear" x1="107.405" y1="110.551" x2="36.003" y2="-71.253" gradientUnits="userSpaceOnUse"><stop stop-color="#97C3F9"/><stop offset="1" stop-color="#93C1F9"/></linearGradient><linearGradient id="paint6_linear" x1="46.054" y1="134.645" x2="-25.347" y2="-47.157" gradientUnits="userSpaceOnUse"><stop/><stop offset="1" stop-color="#fff"/></linearGradient><linearGradient id="paint7_linear" x1="46.054" y1="134.645" x2="-25.347" y2="-47.157" gradientUnits="userSpaceOnUse"><stop stop-color="#97C3F9"/><stop offset="1" stop-color="#93C1F9"/></linearGradient><linearGradient id="paint8_linear" x1="72.258" y1="124.354" x2=".858" y2="-57.449" gradientUnits="userSpaceOnUse"><stop/><stop offset="1" stop-color="#fff"/></linearGradient><linearGradient id="paint9_linear" x1="72.258" y1="124.354" x2=".858" y2="-57.449" gradientUnits="userSpaceOnUse"><stop stop-color="#97C3F9"/><stop offset="1" stop-color="#93C1F9"/></linearGradient><linearGradient id="paint10_linear" x1="98.462" y1="114.062" x2="27.062" y2="-67.74" gradientUnits="userSpaceOnUse"><stop/><stop offset="1" stop-color="#fff"/></linearGradient><linearGradient id="paint11_linear" x1="98.462" y1="114.062" x2="27.062" y2="-67.74" gradientUnits="userSpaceOnUse"><stop stop-color="#97C3F9"/><stop offset="1" stop-color="#93C1F9"/></linearGradient><linearGradient id="paint12_linear" x1="37.111" y1="138.158" x2="-34.29" y2="-43.646" gradientUnits="userSpaceOnUse"><stop/><stop offset="1" stop-color="#fff"/></linearGradient><linearGradient id="paint13_linear" x1="37.111" y1="138.158" x2="-34.29" y2="-43.646" gradientUnits="userSpaceOnUse"><stop stop-color="#97C3F9"/><stop offset="1" stop-color="#93C1F9"/></linearGradient><linearGradient id="paint14_linear" x1="63.316" y1="127.867" x2="-8.086" y2="-53.937" gradientUnits="userSpaceOnUse"><stop/><stop offset="1" stop-color="#fff"/></linearGradient><linearGradient id="paint15_linear" x1="63.316" y1="127.867" x2="-8.086" y2="-53.937" gradientUnits="userSpaceOnUse"><stop stop-color="#97C3F9"/><stop offset="1" stop-color="#93C1F9"/></linearGradient><linearGradient id="paint16_linear" x1="89.52" y1="117.575" x2="18.119" y2="-64.229" gradientUnits="userSpaceOnUse"><stop/><stop offset="1" stop-color="#fff"/></linearGradient><linearGradient id="paint17_linear" x1="89.52" y1="117.575" x2="18.119" y2="-64.229" gradientUnits="userSpaceOnUse"><stop stop-color="#97C3F9"/><stop offset="1" stop-color="#93C1F9"/></linearGradient><linearGradient id="paint18_linear" x1="28.169" y1="141.67" x2="-43.233" y2="-40.134" gradientUnits="userSpaceOnUse"><stop/><stop offset="1" stop-color="#fff"/></linearGradient><linearGradient id="paint19_linear" x1="28.169" y1="141.67" x2="-43.233" y2="-40.134" gradientUnits="userSpaceOnUse"><stop stop-color="#97C3F9"/><stop offset="1" stop-color="#93C1F9"/></linearGradient><linearGradient id="paint20_linear" x1="54.373" y1="131.379" x2="-17.028" y2="-50.425" gradientUnits="userSpaceOnUse"><stop/><stop offset="1" stop-color="#fff"/></linearGradient><linearGradient id="paint21_linear" x1="54.373" y1="131.379" x2="-17.028" y2="-50.425" gradientUnits="userSpaceOnUse"><stop stop-color="#97C3F9"/><stop offset="1" stop-color="#93C1F9"/></linearGradient><linearGradient id="paint22_linear" x1="80.578" y1="121.087" x2="9.176" y2="-60.717" gradientUnits="userSpaceOnUse"><stop/><stop offset="1" stop-color="#fff"/></linearGradient><linearGradient id="paint23_linear" x1="80.578" y1="121.087" x2="9.176" y2="-60.717" gradientUnits="userSpaceOnUse"><stop stop-color="#97C3F9"/><stop offset="1" stop-color="#93C1F9"/></linearGradient><linearGradient id="paint24_linear" x1="19.227" y1="145.182" x2="-52.175" y2="-36.622" gradientUnits="userSpaceOnUse"><stop/><stop offset="1" stop-color="#fff"/></linearGradient><linearGradient id="paint25_linear" x1="19.227" y1="145.182" x2="-52.175" y2="-36.622" gradientUnits="userSpaceOnUse"><stop stop-color="#97C3F9"/><stop offset="1" stop-color="#93C1F9"/></linearGradient><linearGradient id="paint26_linear" x1="45.431" y1="134.89" x2="-25.971" y2="-46.913" gradientUnits="userSpaceOnUse"><stop/><stop offset="1" stop-color="#fff"/></linearGradient><linearGradient id="paint27_linear" x1="45.431" y1="134.89" x2="-25.971" y2="-46.913" gradientUnits="userSpaceOnUse"><stop stop-color="#97C3F9"/><stop offset="1" stop-color="#93C1F9"/></linearGradient><linearGradient id="paint28_linear" x1="71.635" y1="124.599" x2=".234" y2="-57.205" gradientUnits="userSpaceOnUse"><stop/><stop offset="1" stop-color="#fff"/></linearGradient><linearGradient id="paint29_linear" x1="71.635" y1="124.599" x2=".234" y2="-57.205" gradientUnits="userSpaceOnUse"><stop stop-color="#97C3F9"/><stop offset="1" stop-color="#93C1F9"/></linearGradient></defs></svg>